# xmcd
#
# Track frame offsets:
#	150
#	14199
#	32007
#	45666
#	57695
#	70700
#	85797
#	101311
#	116780
#	133779
#	150506
#	165397
#	178666
#	191837
#	207136
#	222703
#	240441
#	261772
#	272279
#	289412
#	303733
#	317719
#	330547
#	346843
#
# Disc length: 4797 seconds
#
# Revision: 1
# Processed by: cddbd v1.5.1PL2 Copyright (c) Steve Scherf et al.
# Submitted via: EasyCDDAExtractor 8.2.1.1
#
DISCID=6512bb18
DTITLE=Various Artist - Puro Calypso
DYEAR=1900
DGENRE=
TTITLE0=Banda Adrenalina - Problema é meu
TTITLE1=Companhia do calypso - Tic tic Bum
TTITLE2=Companhia do calypso - Não me ligue a cobrar
TTITLE3=Banda Lamazon - Fera indomável
TTITLE4=Forró Balança Neném - Depois da meia noite
TTITLE5=Forró Cariciar - Titio
TTITLE6=Banda Lamazon - Gata namoradeira
TTITLE7=Banda Lamazon - Bote de Tigresa
TTITLE8=Aviões do forró - Titular absoluta
TTITLE9=Companhia do calypso - Milk Shake
TTITLE10=Banda Kassikó - O lobo e a ovelha
TTITLE11=Saia Rodada - Swing louco
TTITLE12=Teodoro e Sampaio - Aconteceu comigo
TTITLE13=Forró Saborear - Craw
TTITLE14=Companhia do calypso - Peteca
TTITLE15=Banda do Ratinho - Ela trepa aonde der
TTITLE16=Anjos do Forró - Mulher roleira
TTITLE17=Solteirões do Forró - Vuco-vuco
TTITLE18=Saia Rodada - Mulher que se disputa
TTITLE19=Saia Rodada - Kit da puta
TTITLE20=Aviões do forró - Tontos e loucos
TTITLE21=Gaviões do forró - Thaka thaka na muthaka
TTITLE22=ForróNela - Pense
TTITLE23=Gaviões do forró - Firim fimfim com fimfim
EXTD=
EXTT0=
EXTT1=
EXTT2=
EXTT3=
EXTT4=
EXTT5=
EXTT6=
EXTT7=
EXTT8=
EXTT9=
EXTT10=
EXTT11=
EXTT12=
EXTT13=
EXTT14=
EXTT15=
EXTT16=
EXTT17=
EXTT18=
EXTT19=
EXTT20=
EXTT21=
EXTT22=
EXTT23=
PLAYORDER=
